#!OML:ASF H:\Terrain\Patient Classification 1\Animal1\Tuesday\Animal1.ASF
:FULLY-SPECIFIED
:DEGREES
4126
root 5.23895 15.8375 1.7247 23.1975 -76.8064 -6.04507
lowerback 5.72362 1.95409 1.65883
upperback -4.55203 2.73015 -0.296903
thorax -7.90022 1.22472 -1.57901
lowerneck -3.9551 2.36921 -7.51276
upperneck 7.04345 2.74045 12.2218
head 2.43005 1.56197 5.02879
rclavicle 4.58696e-014 -5.36719e-015
rhumerus 8.80155 29.246 -74.257
rradius 83.317
rwrist 12.249
rhand 0.908235 -1058.13
rfingers 7.12502
rthumb 26.46 -6.30155
lclavicle 4.58696e-014 -5.36719e-015
lhumerus -20.1783 -12.8398 72.9114
lradius 87.5483
lwrist -56.1689
lhand -8.73851 40.3179
lfingers 7.12502
lthumb 17.1981 2229.58
rfemur -19.9026 14.8909 24.2775
rtibia 39.039
rfoot -17.9119 -26.0399
rtoes -14.3731
lfemur -51.801 -11.0991 -4.58066
ltibia 39.0059
lfoot -7.72721 3.25692
ltoes -15.0396
4127
root 5.21145 15.8448 1.74936 22.2973 -77.0608 -5.26222
lowerback 6.03512 2.02934 1.47069
upperback -4.40142 2.81094 -0.436281
thorax -7.91856 1.27231 -1.63979
lowerneck -3.44157 2.37615 -7.50353
upperneck 6.33799 2.78042 12.2544
head 2.13277 1.55854 5.0168
rclavicle 2.75938e-014 -8.10048e-015
rhumerus 9.62183 28.8324 -73.8773
rradius 83.4651
rwrist 12.3682
rhand 1.00449 -1058.38
rfingers 7.12502
rthumb 26.5521 -6.53555
lclavicle 2.75938e-014 -8.10048e-015
lhumerus -19.9376 -13.0268 72.8316
lradius 87.5385
lwrist -56.011
lhand -8.58523 40.8122
lfingers 7.12502
lthumb 17.3457 2230.06
rfemur -20.1087 14.6867 23.911
rtibia 39.8759
rfoot -16.7676 -25.7562
rtoes -17.6642
lfemur -51.5636 -10.9584 -5.08213
ltibia 39.261
lfoot -7.84456 3.15763
ltoes -17.1947
4128
root 5.18937 15.8382 1.77721 22.189 -77.2393 -5.09249
lowerback 6.12837 1.99305 1.47087
upperback -4.28478 2.75685 -0.543496
thorax -7.84397 1.24512 -1.74669
lowerneck -3.00175 2.47858 -7.43748
upperneck 5.74412 2.94314 12.2481
head 1.87017 1.61909 4.98883
rclavicle -3.55949e-015 2.17172e-014
rhumerus 10.536 28.5904 -73.7694
rradius 83.5581
rwrist 12.4692
rhand 1.33731 -1058.24
rfingers 7.12502
rthumb 26.8706 -6.35239
lclavicle -3.55949e-015 2.17172e-014
lhumerus -19.9008 -12.9742 72.6464
lradius 87.7274
lwrist -55.9011
lhand -8.4249 40.7803
lfingers 7.12502
lthumb 17.5 2230.01
rfemur -20.5771 14.319 23.6489
rtibia 40.742
rfoot -17.2522 -24.7289
rtoes -17.5875
lfemur -51.6028 -10.6627 -5.42177
ltibia 39.5511
lfoot -7.8293 3.05664
ltoes -21.4913
4129
root 5.16767 15.8352 1.80745 22.4016 -77.2765 -5.2677
lowerback 6.22227 1.94477 1.61577
upperback -4.14297 2.7018 -0.637619
thorax -7.73732 1.21097 -1.9199
lowerneck -2.61666 2.56827 -7.31589
upperneck 5.2306 3.07902 12.2893
head 1.64344 1.67023 4.96792
rclavicle 3.45388e-015 -3.19298e-015
rhumerus 11.3276 28.2867 -73.7042
rradius 83.8415
rwrist 12.5772
rhand 1.66882 -1057.81
rfingers 7.12502
rthumb 27.1878 -5.87359
lclavicle 3.45388e-015 -3.19298e-015
lhumerus -19.7305 -12.8082 72.3551
lradius 87.8812
lwrist -55.779
lhand -7.9759 40.0407
lfingers 7.12502
lthumb 17.932 2229.23
rfemur -21.0473 13.7407 23.5453
rtibia 41.6479
rfoot -17.3139 -23.9287
rtoes -17.9941
lfemur -51.7131 -10.2613 -5.77502
ltibia 39.8157
lfoot -7.63683 2.74201
ltoes -24.06
4130
root 5.14285 15.8416 1.83615 22.3667 -77.4297 -5.2114
lowerback 6.32601 2.02275 1.62826
upperback -3.97111 2.80327 -0.740427
thorax -7.60319 1.26159 -2.04714
lowerneck -2.43382 2.53767 -7.40231
upperneck 4.86845 3.05085 12.5273
head 1.50421 1.648 5.04707
rclavicle -2.4918e-014 -1.57661e-014
rhumerus 12.0576 27.7482 -73.4321
rradius 84.1755
rwrist 12.7289
rhand 1.57206 -1057.62
rfingers 7.12502
rthumb 27.0952 -5.69249
lclavicle -2.4918e-014 -1.57661e-014
lhumerus -19.4337 -12.9474 72.2617
lradius 87.9408
lwrist -55.6856
lhand -7.70168 40.0157
lfingers 7.12502
lthumb 18.1959 2229.18
rfemur -21.5172 13.2259 23.3747
rtibia 42.6072
rfoot -16.0015 -23.7576
rtoes -20.8451
lfemur -51.7258 -9.90614 -6.16215
ltibia 40.0655
lfoot -7.28476 2.71262
ltoes -24.2548
4131
root 5.12003 15.8494 1.86479 22.1167 -77.7632 -4.86412
lowerback 6.39929 2.12382 1.36999
upperback -3.82423 2.91558 -0.742713
thorax -7.49559 1.33352 -1.91799
lowerneck -2.29641 2.54801 -7.43918
upperneck 4.57743 3.09007 12.4505
head 1.39339 1.6573 5.02333
rclavicle 5.12709e-014 1.70706e-014
rhumerus 12.9241 27.4325 -72.9214
rradius 84.4365
rwrist 12.546
rhand 1.25105 -1058
rfingers 7.12502
rthumb 26.7881 -6.12602
lclavicle 5.12709e-014 1.70706e-014
lhumerus -19.2245 -12.9721 72.3837
lradius 87.9136
lwrist -55.8918
lhand -7.59496 40.0945
lfingers 7.12502
lthumb 18.2985 2229.25
rfemur -22.1066 12.8764 23.0249
rtibia 43.5932
rfoot -14.7783 -23.2283
rtoes -23.0688
lfemur -51.7385 -9.6973 -6.46582
ltibia 40.3475
lfoot -6.92483 2.76151
ltoes -22.093
4132
root 5.10244 15.858 1.89143 22.259 -77.9718 -4.78207
lowerback 6.50267 2.12588 1.19438
upperback -3.78982 2.90586 -0.69963
thorax -7.52984 1.33873 -1.77724
lowerneck -2.20576 2.64406 -7.23537
upperneck 4.47341 3.2353 12.0565
head 1.34455 1.72201 4.8657
rclavicle -1.18712e-014 -1.52816e-014
rhumerus 13.6501 27.3226 -72.5821
rradius 84.8017
rwrist 12.2247
rhand 1.62958 -1057.99
rfingers 7.12502
rthumb 27.1503 -6.06126
lclavicle -1.18712e-014 -1.52816e-014
lhumerus -19.1419 -12.8133 72.3144
lradius 87.905
lwrist -55.8109
lhand -7.35375 39.6143
lfingers 7.12502
lthumb 18.5306 2228.75
rfemur -22.9102 12.5467 22.7231
rtibia 44.6287
rfoot -14.5737 -22.0135
rtoes -23.0223
lfemur -52.0066 -9.38044 -6.69354
ltibia 40.6604
lfoot -6.73492 2.47246
ltoes -22.4811
4133
root 5.08491 15.8655 1.91571 23.6382 -77.9896 -6.0031
lowerback 6.73856 2.13805 1.45196
upperback -3.80199 2.95302 -0.678888
thorax -7.66678 1.34692 -1.91699
lowerneck -2.24082 2.66773 -6.98114
upperneck 4.61603 3.25851 11.7868
head 1.39956 1.73568 4.74311
rclavicle -2.49785e-014 1.63128e-014
rhumerus 14.1805 26.9671 -72.3854
rradius 85.2215
rwrist 12.196
rhand 2.06548 -1057.4
rfingers 7.12502
rthumb 27.5672 -5.40459
lclavicle -2.49785e-014 1.63128e-014
lhumerus -19.1558 -13.1514 72.2186
lradius 87.9
lwrist -55.513
lhand -7.66134 40.1607
lfingers 7.12502
lthumb 18.2347 2229.33
rfemur -23.6911 12.1475 22.8101
rtibia 45.6969
rfoot -15.1496 -20.4724
rtoes -20.6051
lfemur -52.3735 -9.01319 -6.61791
ltibia 41.0498
lfoot -6.57611 2.19153
ltoes -23.8707
4134
root 5.06198 15.8754 1.94183 24.1273 -78.0709 -6.47539
lowerback 7.04769 2.2048 1.56633
upperback -3.7297 3.05468 -0.751189
thorax -7.75511 1.38796 -2.08291
lowerneck -2.27072 2.63641 -6.82585
upperneck 4.65547 3.20799 11.7566
head 1.42424 1.71343 4.70857
rclavicle -9.16972e-015 3.22404e-015
rhumerus 14.7843 26.3535 -72.2757
rradius 85.5205
rwrist 12.4263
rhand 1.99075 -1057.52
rfingers 7.12502
rthumb 27.4957 -5.53617
lclavicle -9.16972e-015 3.22404e-015
lhumerus -19.1216 -13.5874 72.2164
lradius 87.8404
lwrist -55.646
lhand -8.47398 41.0658
lfingers 7.12502
lthumb 17.4527 2230.3
rfemur -24.2995 11.5379 22.7823
rtibia 46.7996
rfoot -14.7615 -19.4473
rtoes -20.2928
lfemur -52.524 -8.87474 -6.66687
ltibia 41.4933
lfoot -6.28183 1.93467
ltoes -21.7237
4135
root 5.03946 15.885 1.96951 23.7819 -78.2477 -6.12244
lowerback 7.33679 2.20844 1.43138
upperback -3.60564 3.04561 -0.812932
thorax -7.79371 1.38922 -2.0815
lowerneck -2.17582 2.70432 -6.80914
upperneck 4.37579 3.31603 11.7936
head 1.3161 1.76102 4.71227
rclavicle -2.7364e-015 1.27719e-014
rhumerus 15.5189 25.9507 -72.3204
rradius 85.683
rwrist 12.6699
rhand 1.85609 -1057.68
rfingers 7.12502
rthumb 27.3669 -5.70896
lclavicle -2.7364e-015 1.27719e-014
lhumerus -19.0896 -13.5756 72.1592
lradius 87.8519
lwrist -55.6933
lhand -8.74479 41.6247
lfingers 7.12502
lthumb 17.1921 2230.88
rfemur -24.9342 10.9773 22.534
rtibia 47.9793
rfoot -13.0934 -18.8475
rtoes -23.7082
lfemur -52.5996 -8.67709 -7.00867
ltibia 41.9276
lfoot -6.03133 1.69679
ltoes -22.5154
4136
root 5.02248 15.8941 1.99857 24.043 -78.3235 -6.3903
lowerback 7.7133 2.18281 1.42823
upperback -3.52496 3.02022 -0.764706
thorax -7.92972 1.37655 -2.04152
lowerneck -1.99785 2.76888 -6.91489
upperneck 4.05991 3.4252 11.8184
head 1.1815 1.80447 4.73054
rclavicle 2.13134e-014 8.16881e-015
rhumerus 16.1926 25.7853 -72.1492
rradius 85.834
rwrist 12.7714
rhand 1.24374 -1057.62
rfingers 7.12502
rthumb 26.7811 -5.73952
lclavicle 2.13134e-014 8.16881e-015
lhumerus -19.1485 -13.4176 72.2306
lradius 87.8918
lwrist -55.6479
lhand -8.63282 41.7743
lfingers 7.12502
lthumb 17.2999 2231.02
rfemur -25.6548 10.5248 22.409
rtibia 49.2343
rfoot -11.6502 -17.883
rtoes -26.5022
lfemur -52.7275 -8.37043 -7.27153
ltibia 42.3152
lfoot -5.75226 1.21557
ltoes -24.6739
